<?xml version="1.0" standalone="no"?>
<!DOCTYPE svg PUBLIC "-//W3C//DTD SVG 20010904//EN"
 "http://www.w3.org/TR/2001/REC-SVG-20010904/DTD/svg10.dtd">
<svg version="1.0" xmlns="http://www.w3.org/2000/svg"
 width="3233.000000pt" height="947.000000pt" viewBox="0 0 3233.000000 947.000000"
 preserveAspectRatio="xMidYMid meet">
<metadata>
Created by potrace 1.16, written by Peter Selinger 2001-2019
</metadata>
<g transform="translate(0.000000,947.000000) scale(0.100000,-0.100000)"
fill="#000000" stroke="none">
<path d="M20975 9464 c-581 -47 -1073 -202 -1479 -468 -649 -423 -1119 -1243
-1271 -2216 -22 -141 -31 -524 -16 -661 83 -719 515 -1199 1241 -1378 742
-183 1624 -39 2285 372 322 200 645 526 846 852 243 395 404 860 474 1380 23
163 31 503 16 646 -70 668 -381 1104 -946 1329 -137 54 -315 98 -515 126 -101
14 -531 26 -635 18z m265 -944 c328 -81 482 -297 521 -732 20 -218 -15 -535
-97 -857 -165 -658 -467 -1087 -880 -1251 -319 -127 -720 -111 -950 39 -74 47
-171 153 -212 228 -121 228 -143 560 -66 983 149 812 478 1345 947 1534 164
66 287 86 492 81 119 -3 182 -9 245 -25z"/>
<path d="M966 9073 c-93 -433 -217 -1009 -346 -1608 -234 -1083 -250 -1168
-257 -1440 -6 -193 4 -303 38 -444 109 -442 451 -730 1013 -855 293 -66 689
-90 1050 -66 801 55 1407 306 1791 743 213 242 392 625 509 1092 19 77 83 365
141 640 59 275 187 877 286 1339 98 461 179 845 179 852 0 12 -99 14 -615 14
l-615 0 -5 -22 c-6 -28 -202 -949 -415 -1948 -88 -415 -174 -803 -190 -862
-161 -580 -490 -891 -993 -939 -150 -15 -295 0 -422 42 -115 39 -182 77 -262
152 -155 145 -207 337 -169 625 9 68 50 282 92 475 41 194 113 530 159 747 46
217 147 692 224 1054 78 363 141 663 141 668 0 4 -287 8 -638 8 l-638 0 -58
-267z"/>
<path d="M6265 9318 c-6 -27 -489 -2292 -545 -2558 -21 -102 -88 -417 -149
-700 -228 -1065 -271 -1271 -271 -1282 0 -4 249 -8 554 -8 520 0 555 1 560 18
3 9 76 352 161 762 86 410 207 990 270 1290 63 300 157 752 210 1005 53 253
98 461 100 463 1 2 12 -34 22 -80 11 -46 194 -842 409 -1770 l389 -1688 855 0
855 0 134 628 c73 345 180 845 237 1112 132 622 332 1557 479 2250 63 300 118
553 121 563 5 16 -26 17 -550 17 l-556 0 -5 -22 c-5 -22 -61 -290 -170 -813
-30 -143 -82 -390 -115 -550 -75 -359 -292 -1395 -360 -1725 -28 -135 -54
-254 -57 -265 -5 -14 -12 0 -24 50 -9 39 -46 194 -83 345 -199 830 -426 1770
-602 2499 -63 261 -114 475 -114 477 0 2 -394 4 -875 4 l-875 0 -5 -22z"/>
<path d="M11500 9336 c0 -5 -87 -418 -185 -876 -42 -195 -93 -438 -115 -540
-21 -102 -125 -588 -230 -1080 -105 -492 -208 -978 -230 -1080 -65 -308 -201
-943 -207 -967 l-5 -23 656 0 c569 0 656 2 656 15 0 8 36 184 81 392 44 208
109 513 144 678 35 165 188 883 340 1595 330 1552 384 1803 395 1853 l8 37
-654 0 c-360 0 -654 -2 -654 -4z"/>
<path d="M13612 9138 c-65 -308 -471 -2213 -663 -3113 -55 -258 -136 -639
-180 -845 -44 -206 -82 -383 -85 -392 -5 -17 26 -18 554 -18 l559 0 11 53 c10
45 181 860 443 2117 44 212 98 468 119 570 22 102 68 321 102 487 35 167 65
303 68 303 3 0 187 -786 409 -1747 221 -962 405 -1756 407 -1765 5 -17 55 -18
859 -18 804 0 854 1 859 18 3 9 22 94 41 187 20 94 87 411 150 705 63 294 191
895 284 1335 94 440 242 1138 331 1552 88 414 160 757 160 763 0 7 -175 10
-553 10 l-552 0 -23 -112 c-13 -62 -52 -250 -87 -418 -35 -168 -157 -748 -270
-1290 -334 -1598 -329 -1574 -336 -1554 -4 11 -28 105 -53 209 -25 105 -167
696 -316 1315 -370 1532 -365 1515 -408 1692 l-37 158 -875 0 -875 0 -43 -202z"/>
<path d="M23594 9313 c3 -16 24 -161 46 -323 22 -162 65 -470 96 -685 199
-1413 494 -3521 494 -3528 0 -4 341 -7 758 -7 l757 0 174 303 c205 354 605
1049 807 1397 247 428 641 1110 759 1315 76 132 168 292 205 355 37 63 137
237 222 385 86 149 221 383 301 521 80 138 150 261 156 273 l12 21 -630 0
-629 0 -70 -127 c-38 -71 -170 -312 -292 -538 -123 -225 -374 -687 -558 -1025
-184 -338 -431 -793 -549 -1010 -289 -531 -327 -599 -330 -596 -1 1 -74 724
-163 1607 -88 882 -162 1623 -165 1647 l-6 42 -700 0 -701 0 6 -27z"/>
<path d="M28895 9318 c-2 -7 -36 -161 -74 -343 -61 -284 -383 -1796 -486
-2280 -34 -158 -59 -276 -275 -1295 -61 -283 -114 -534 -120 -557 -5 -23 -10
-49 -10 -57 0 -14 172 -16 1739 -16 l1739 0 16 73 c8 39 51 239 94 442 l79
370 -1114 3 -1115 2 8 33 c4 17 50 235 103 482 l96 450 1028 3 c565 1 1027 5
1027 8 0 4 41 197 90 431 50 233 90 428 90 433 0 6 -376 11 -1023 12 l-1024 3
101 470 101 470 1090 5 1090 5 86 405 c47 223 89 417 92 433 l7 27 -1715 0
c-1364 0 -1717 -3 -1720 -12z"/>
<path d="M2090 3300 c-491 -44 -976 -204 -1335 -440 -672 -443 -922 -1124
-635 -1727 131 -276 382 -535 702 -726 759 -453 1866 -533 2758 -200 664 248
1128 717 1221 1233 19 103 16 314 -5 423 -87 450 -435 861 -953 1125 -331 169
-711 274 -1123 312 -129 11 -500 11 -630 0z"/>
<path d="M8735 3300 c-675 -68 -1256 -314 -1640 -695 -288 -286 -435 -615
-435 -970 0 -336 141 -646 421 -923 371 -368 930 -610 1589 -688 199 -24 592
-24 790 0 378 45 690 133 995 280 254 122 438 250 602 417 180 184 279 336
351 540 87 245 81 548 -15 804 -86 231 -246 453 -454 630 -363 310 -847 510
-1424 591 -140 19 -636 28 -780 14z"/>
<path d="M15510 3303 c-461 -44 -782 -129 -1117 -292 -304 -149 -534 -326
-720 -555 -283 -350 -374 -802 -240 -1191 41 -118 75 -186 152 -300 470 -706
1586 -1087 2710 -924 787 114 1449 502 1739 1021 209 374 198 833 -29 1217
-330 559 -1050 942 -1915 1021 -105 9 -495 12 -580 3z"/>
<path d="M22401 3300 c-734 -76 -1347 -351 -1721 -772 -228 -257 -344 -530
-357 -839 -7 -166 6 -267 52 -406 218 -657 972 -1143 1955 -1259 199 -24 591
-24 790 0 967 115 1722 594 1948 1236 87 250 81 564 -18 818 -109 283 -335
554 -625 751 -354 241 -748 385 -1250 457 -129 18 -643 27 -774 14z"/>
<path d="M29160 3304 c-697 -61 -1288 -304 -1682 -690 -517 -506 -591 -1174
-191 -1713 298 -401 829 -702 1462 -830 659 -134 1385 -67 1971 181 441 187
790 479 977 816 57 104 116 270 134 377 19 115 14 314 -11 435 -133 649 -798
1184 -1695 1365 -230 46 -336 56 -635 60 -157 1 -305 1 -330 -1z"/>
</g>
</svg>
